<mxfile host="app.diagrams.net" modified="2024-06-07T17:26:54.129Z" agent="Mozilla/5.0 (X11; Ubuntu; Linux x86_64; rv:109.0) Gecko/20100101 Firefox/113.0" etag="OeN0te6bTs57vqDk8zId" version="24.5.1" type="github">
  <diagram name="Page-1" id="6aGXswRgfUKFkrVfbMi_">
    <mxGraphModel dx="813" dy="439" grid="1" gridSize="10" guides="1" tooltips="1" connect="1" arrows="1" fold="1" page="1" pageScale="1" pageWidth="827" pageHeight="1169" math="0" shadow="0">
      <root>
        <mxCell id="0" />
        <mxCell id="1" parent="0" />
        <mxCell id="5J5I5xCZDqSaC__9h7dp-1" value="" style="ellipse;whiteSpace=wrap;html=1;aspect=fixed;fillColor=#000000;" parent="1" vertex="1">
          <mxGeometry x="414" y="140" width="60" height="60" as="geometry" />
        </mxCell>
        <mxCell id="5J5I5xCZDqSaC__9h7dp-2" value="" style="endArrow=none;html=1;rounded=0;strokeColor=#FFFFFF;strokeWidth=8;" parent="1" edge="1">
          <mxGeometry width="50" height="50" relative="1" as="geometry">
            <mxPoint x="429" y="155" as="sourcePoint" />
            <mxPoint x="459" y="185" as="targetPoint" />
          </mxGeometry>
        </mxCell>
        <mxCell id="5J5I5xCZDqSaC__9h7dp-3" value="" style="endArrow=none;html=1;rounded=0;strokeColor=#FFFFFF;strokeWidth=8;" parent="1" edge="1">
          <mxGeometry width="50" height="50" relative="1" as="geometry">
            <mxPoint x="429" y="185" as="sourcePoint" />
            <mxPoint x="459" y="155" as="targetPoint" />
          </mxGeometry>
        </mxCell>
        <mxCell id="5J5I5xCZDqSaC__9h7dp-4" value="" style="ellipse;whiteSpace=wrap;html=1;aspect=fixed;fillColor=#000000;" parent="1" vertex="1">
          <mxGeometry x="414" y="260" width="60" height="60" as="geometry" />
        </mxCell>
        <mxCell id="5J5I5xCZDqSaC__9h7dp-5" value="" style="endArrow=none;html=1;rounded=0;strokeColor=#FFFFFF;strokeWidth=8;" parent="1" edge="1">
          <mxGeometry width="50" height="50" relative="1" as="geometry">
            <mxPoint x="424" y="289.74" as="sourcePoint" />
            <mxPoint x="464" y="289.74" as="targetPoint" />
          </mxGeometry>
        </mxCell>
        <mxCell id="5J5I5xCZDqSaC__9h7dp-6" value="" style="endArrow=none;html=1;rounded=0;strokeColor=#FFFFFF;strokeWidth=8;" parent="1" edge="1">
          <mxGeometry width="50" height="50" relative="1" as="geometry">
            <mxPoint x="444" y="310" as="sourcePoint" />
            <mxPoint x="444" y="270" as="targetPoint" />
          </mxGeometry>
        </mxCell>
        <mxCell id="5J5I5xCZDqSaC__9h7dp-7" value="" style="endArrow=classic;html=1;rounded=0;exitX=0.5;exitY=0;exitDx=0;exitDy=0;entryX=0.5;entryY=1;entryDx=0;entryDy=0;strokeWidth=3;" parent="1" source="5J5I5xCZDqSaC__9h7dp-4" target="5J5I5xCZDqSaC__9h7dp-1" edge="1">
          <mxGeometry width="50" height="50" relative="1" as="geometry">
            <mxPoint x="450" y="230" as="sourcePoint" />
            <mxPoint x="500" y="180" as="targetPoint" />
          </mxGeometry>
        </mxCell>
        <mxCell id="5J5I5xCZDqSaC__9h7dp-8" value="" style="endArrow=classic;html=1;rounded=0;entryX=0;entryY=0.5;entryDx=0;entryDy=0;strokeWidth=3;" parent="1" target="5J5I5xCZDqSaC__9h7dp-1" edge="1">
          <mxGeometry width="50" height="50" relative="1" as="geometry">
            <mxPoint x="370" y="170" as="sourcePoint" />
            <mxPoint x="500" y="180" as="targetPoint" />
          </mxGeometry>
        </mxCell>
        <mxCell id="5J5I5xCZDqSaC__9h7dp-9" value="" style="endArrow=classic;html=1;rounded=0;entryX=0;entryY=0.5;entryDx=0;entryDy=0;strokeWidth=3;" parent="1" edge="1">
          <mxGeometry width="50" height="50" relative="1" as="geometry">
            <mxPoint x="370" y="289.62" as="sourcePoint" />
            <mxPoint x="414" y="289.62" as="targetPoint" />
          </mxGeometry>
        </mxCell>
        <mxCell id="5J5I5xCZDqSaC__9h7dp-10" value="" style="endArrow=classic;html=1;rounded=0;exitX=1;exitY=0.5;exitDx=0;exitDy=0;strokeWidth=3;" parent="1" source="5J5I5xCZDqSaC__9h7dp-1" edge="1">
          <mxGeometry width="50" height="50" relative="1" as="geometry">
            <mxPoint x="450" y="230" as="sourcePoint" />
            <mxPoint x="540" y="170" as="targetPoint" />
          </mxGeometry>
        </mxCell>
        <mxCell id="5J5I5xCZDqSaC__9h7dp-11" value="" style="edgeStyle=segmentEdgeStyle;endArrow=classic;html=1;curved=0;rounded=0;endSize=8;startSize=8;entryX=0.5;entryY=1;entryDx=0;entryDy=0;strokeWidth=2;" parent="1" target="5J5I5xCZDqSaC__9h7dp-4" edge="1">
          <mxGeometry width="50" height="50" relative="1" as="geometry">
            <mxPoint x="370" y="360" as="sourcePoint" />
            <mxPoint x="446" y="330" as="targetPoint" />
          </mxGeometry>
        </mxCell>
        <mxCell id="5J5I5xCZDqSaC__9h7dp-12" value="" style="pointerEvents=1;verticalLabelPosition=bottom;shadow=0;dashed=0;align=center;html=1;verticalAlign=top;shape=mxgraph.electrical.waveforms.sine_wave;" parent="1" vertex="1">
          <mxGeometry x="260" y="133.82" width="20" height="66.18" as="geometry" />
        </mxCell>
        <mxCell id="5J5I5xCZDqSaC__9h7dp-13" value="" style="pointerEvents=1;verticalLabelPosition=bottom;shadow=0;dashed=0;align=center;html=1;verticalAlign=top;shape=mxgraph.electrical.waveforms.sine_wave;" parent="1" vertex="1">
          <mxGeometry x="280" y="133.82" width="20" height="66.18" as="geometry" />
        </mxCell>
        <mxCell id="5J5I5xCZDqSaC__9h7dp-14" value="" style="pointerEvents=1;verticalLabelPosition=bottom;shadow=0;dashed=0;align=center;html=1;verticalAlign=top;shape=mxgraph.electrical.waveforms.sine_wave;" parent="1" vertex="1">
          <mxGeometry x="300" y="133.82" width="20" height="66.18" as="geometry" />
        </mxCell>
        <mxCell id="5J5I5xCZDqSaC__9h7dp-15" value="" style="pointerEvents=1;verticalLabelPosition=bottom;shadow=0;dashed=0;align=center;html=1;verticalAlign=top;shape=mxgraph.electrical.waveforms.sine_wave;" parent="1" vertex="1">
          <mxGeometry x="320" y="133.82" width="20" height="66.18" as="geometry" />
        </mxCell>
        <mxCell id="5J5I5xCZDqSaC__9h7dp-16" value="" style="pointerEvents=1;verticalLabelPosition=bottom;shadow=0;dashed=0;align=center;html=1;verticalAlign=top;shape=mxgraph.electrical.waveforms.sine_wave;" parent="1" vertex="1">
          <mxGeometry x="340" y="133.82" width="20" height="66.18" as="geometry" />
        </mxCell>
        <mxCell id="5J5I5xCZDqSaC__9h7dp-17" value="" style="pointerEvents=1;verticalLabelPosition=bottom;shadow=0;dashed=0;align=center;html=1;verticalAlign=top;shape=mxgraph.electrical.waveforms.sine_wave;" parent="1" vertex="1">
          <mxGeometry x="240" y="133.82" width="20" height="66.18" as="geometry" />
        </mxCell>
        <mxCell id="5J5I5xCZDqSaC__9h7dp-18" value="" style="pointerEvents=1;verticalLabelPosition=bottom;shadow=0;dashed=0;align=center;html=1;verticalAlign=top;shape=mxgraph.electrical.waveforms.square_wave;strokeWidth=1;" parent="1" vertex="1">
          <mxGeometry x="220" y="350" width="70" height="50" as="geometry" />
        </mxCell>
        <mxCell id="5J5I5xCZDqSaC__9h7dp-21" value="" style="pointerEvents=1;verticalLabelPosition=bottom;shadow=0;dashed=0;align=center;html=1;verticalAlign=top;shape=mxgraph.electrical.waveforms.square_wave;strokeWidth=1;" parent="1" vertex="1">
          <mxGeometry x="290" y="350" width="70" height="50" as="geometry" />
        </mxCell>
        <mxCell id="5J5I5xCZDqSaC__9h7dp-22" value="" style="pointerEvents=1;verticalLabelPosition=bottom;shadow=0;dashed=0;align=center;html=1;verticalAlign=top;shape=mxgraph.electrical.waveforms.sine_wave;" parent="1" vertex="1">
          <mxGeometry x="220" y="133.82" width="20" height="66.18" as="geometry" />
        </mxCell>
        <mxCell id="5J5I5xCZDqSaC__9h7dp-23" value="" style="pointerEvents=1;verticalLabelPosition=bottom;shadow=0;dashed=0;align=center;html=1;verticalAlign=top;shape=mxgraph.electrical.waveforms.square_wave;" parent="1" vertex="1">
          <mxGeometry x="220" y="250" width="27.5" height="60" as="geometry" />
        </mxCell>
        <mxCell id="5J5I5xCZDqSaC__9h7dp-24" value="" style="pointerEvents=1;verticalLabelPosition=bottom;shadow=0;dashed=0;align=center;html=1;verticalAlign=top;shape=mxgraph.electrical.waveforms.square_wave;" parent="1" vertex="1">
          <mxGeometry x="247.5" y="250" width="52.5" height="60" as="geometry" />
        </mxCell>
        <mxCell id="5J5I5xCZDqSaC__9h7dp-25" value="" style="pointerEvents=1;verticalLabelPosition=bottom;shadow=0;dashed=0;align=center;html=1;verticalAlign=top;shape=mxgraph.electrical.waveforms.square_wave;" parent="1" vertex="1">
          <mxGeometry x="300" y="250" width="30" height="60" as="geometry" />
        </mxCell>
        <mxCell id="5J5I5xCZDqSaC__9h7dp-26" value="" style="pointerEvents=1;verticalLabelPosition=bottom;shadow=0;dashed=0;align=center;html=1;verticalAlign=top;shape=mxgraph.electrical.waveforms.square_wave;" parent="1" vertex="1">
          <mxGeometry x="330" y="250" width="30" height="60" as="geometry" />
        </mxCell>
        <mxCell id="5J5I5xCZDqSaC__9h7dp-27" value="&lt;b style=&quot;border-color: var(--border-color); font-family: &amp;quot;Times New Roman&amp;quot;; font-size: 14px;&quot;&gt;L1 Carrier - 1.575GHz&lt;/b&gt;" style="text;html=1;align=center;verticalAlign=middle;whiteSpace=wrap;rounded=0;" parent="1" vertex="1">
          <mxGeometry x="220" y="190" width="140" height="30" as="geometry" />
        </mxCell>
        <mxCell id="5J5I5xCZDqSaC__9h7dp-28" value="&lt;b style=&quot;border-color: var(--border-color); color: rgb(0, 0, 0); font-family: &amp;quot;Times New Roman&amp;quot;; font-size: 14px; font-style: normal; font-variant-ligatures: normal; font-variant-caps: normal; letter-spacing: normal; orphans: 2; text-align: center; text-indent: 0px; text-transform: none; widows: 2; word-spacing: 0px; -webkit-text-stroke-width: 0px; background-color: rgb(251, 251, 251); text-decoration-thickness: initial; text-decoration-style: initial; text-decoration-color: initial;&quot;&gt;C/A Code - 1Mbps&lt;/b&gt;" style="text;whiteSpace=wrap;html=1;" parent="1" vertex="1">
          <mxGeometry x="240" y="310" width="115" height="30" as="geometry" />
        </mxCell>
        <mxCell id="5J5I5xCZDqSaC__9h7dp-29" value="&lt;b style=&quot;border-color: var(--border-color); color: rgb(0, 0, 0); font-family: &amp;quot;Times New Roman&amp;quot;; font-size: 14px; font-style: normal; font-variant-ligatures: normal; font-variant-caps: normal; letter-spacing: normal; orphans: 2; text-align: center; text-indent: 0px; text-transform: none; widows: 2; word-spacing: 0px; -webkit-text-stroke-width: 0px; background-color: rgb(251, 251, 251); text-decoration-thickness: initial; text-decoration-style: initial; text-decoration-color: initial;&quot;&gt;Navigation Data - 50bps&lt;/b&gt;" style="text;whiteSpace=wrap;html=1;" parent="1" vertex="1">
          <mxGeometry x="220" y="400" width="170" height="40" as="geometry" />
        </mxCell>
        <mxCell id="5J5I5xCZDqSaC__9h7dp-30" value="&lt;font face=&quot;Times New Roman&quot; style=&quot;font-size: 14px;&quot;&gt;&lt;b&gt;Modulo 2 Adder&lt;/b&gt;&lt;/font&gt;" style="text;html=1;align=center;verticalAlign=middle;whiteSpace=wrap;rounded=0;" parent="1" vertex="1">
          <mxGeometry x="480" y="275" width="110" height="30" as="geometry" />
        </mxCell>
        <mxCell id="5J5I5xCZDqSaC__9h7dp-31" value="&lt;font face=&quot;Times New Roman&quot; style=&quot;font-size: 14px;&quot;&gt;&lt;b&gt;Modulator&lt;/b&gt;&lt;/font&gt;" style="text;html=1;align=center;verticalAlign=middle;whiteSpace=wrap;rounded=0;" parent="1" vertex="1">
          <mxGeometry x="389" y="110" width="110" height="30" as="geometry" />
        </mxCell>
        <mxCell id="5J5I5xCZDqSaC__9h7dp-32" value="&lt;font face=&quot;Times New Roman&quot; style=&quot;font-size: 14px;&quot;&gt;&lt;b&gt;Broadcast Signal&lt;/b&gt;&lt;/font&gt;" style="text;html=1;align=center;verticalAlign=middle;whiteSpace=wrap;rounded=0;" parent="1" vertex="1">
          <mxGeometry x="540" y="155" width="120" height="30" as="geometry" />
        </mxCell>
      </root>
    </mxGraphModel>
  </diagram>
</mxfile>
